<svg width="16" height="20" viewBox="0 0 16 20" fill="none" xmlns="http://www.w3.org/2000/svg">
<path d="M12.6404 9.0728C12.1804 9.0728 11.8066 8.70291 11.8066 8.24767V5.15495C11.8066 3.22261 10.2179 1.65028 8.26539 1.65028C6.31289 1.65028 4.72414 3.22261 4.72414 5.15495V8.24767C4.72414 8.70291 4.35039 9.0728 3.89039 9.0728C3.43039 9.0728 3.05664 8.70291 3.05664 8.24767V5.15495C3.05664 2.31212 5.39289 0 8.26539 0C11.1379 0 13.4741 2.31212 13.4741 5.15495V8.24767C13.4741 8.70291 13.1004 9.0728 12.6404 9.0728Z" fill="#F7F7F7"/>
<path d="M13.8906 7.62912H2.64062C1.60687 7.62912 0.765625 8.46168 0.765625 9.48475V18.1444C0.765625 19.1674 1.60687 20 2.64062 20H13.8906C14.9244 20 15.7656 19.1674 15.7656 18.1444V9.48475C15.7656 8.46168 14.9244 7.62912 13.8906 7.62912Z" fill="#F7F7F7"/>
</svg>
