<svg width="256" height="62" viewBox="0 0 256 62" fill="none" xmlns="http://www.w3.org/2000/svg">
<path d="M67.1421 40.3074V8.14371H73.2715V19.82C75.028 17.3652 77.3564 16.1364 80.257 16.1338C81.6715 16.1085 83.0726 16.4123 84.3497 17.0212C85.5484 17.6132 86.5904 18.4797 87.391 19.5503C88.2552 20.7067 88.8967 22.0137 89.283 23.4046C89.728 25.0014 89.9452 26.653 89.928 28.3105C89.9479 30.1114 89.684 31.9041 89.1462 33.6229C88.6995 35.0674 87.9847 36.4147 87.0392 37.5945C86.1697 38.6628 85.0645 39.5151 83.8103 40.0846C82.5241 40.6632 81.1278 40.9566 79.7175 40.9446C76.7831 40.9446 74.5967 39.7797 73.1581 37.4499L73.1112 40.323L67.1421 40.3074ZM78.2946 35.855C79.0472 35.8644 79.7905 35.6882 80.4587 35.3418C81.1269 34.9954 81.6994 34.4896 82.1255 33.8692C83.1132 32.5427 83.6083 30.8279 83.6109 28.7249C83.6109 23.875 81.8232 21.4501 78.2477 21.4501C74.7687 21.4501 73.0291 24.0027 73.0291 29.108C73.0291 31.1172 73.5321 32.7447 74.538 33.9904C74.9742 34.5738 75.5415 35.0466 76.1941 35.3705C76.8466 35.6944 77.5661 35.8603 78.2946 35.855Z" fill="#1467A4"/>
<path d="M92.2227 40.3074V8.14371H98.4459V40.3074H92.2227Z" fill="#1467A4"/>
<path d="M116.396 40.3074V37.0042C114.801 39.6103 112.361 40.9133 109.075 40.9133C107.966 40.9274 106.866 40.7159 105.842 40.2917C104.886 39.8894 104.029 39.2854 103.328 38.5209C102.609 37.7222 102.049 36.7935 101.679 35.7846C101.266 34.6502 101.063 33.4501 101.081 32.243V16.7592H107.304V31.3087C107.304 34.2457 108.628 35.7129 111.275 35.7103C112.87 35.7103 114.074 35.2087 114.887 34.2053C115.731 33.1027 116.16 31.7382 116.099 30.351V16.7592H122.272V40.3074H116.396Z" fill="#1467A4"/>
<path d="M140.777 40.2449L140.726 37.3717C139.293 39.7015 137.106 40.8664 134.167 40.8664C132.748 40.8833 131.343 40.5883 130.05 40.0025C128.808 39.4325 127.712 38.5877 126.845 37.532C125.902 36.3493 125.187 35.0011 124.738 33.5565C124.2 31.8377 123.936 30.0449 123.956 28.2441C123.94 26.5851 124.159 24.9322 124.605 23.3343C124.99 21.9427 125.631 20.6354 126.497 19.48C127.3 18.4183 128.34 17.5589 129.534 16.9704C130.811 16.3615 132.213 16.0577 133.627 16.083C136.53 16.083 138.86 17.3118 140.617 19.7693V8.07336H146.746V40.2449H140.777ZM135.605 35.7925C136.334 35.7973 137.055 35.6308 137.708 35.3062C138.361 34.9817 138.929 34.5082 139.366 33.9239C140.372 32.6809 140.875 31.0534 140.875 29.0415C140.875 23.9363 139.135 21.3824 135.656 21.3798C132.08 21.3798 130.293 23.806 130.293 28.6584C130.293 30.7641 130.788 32.4789 131.778 33.8027C132.203 34.4236 132.775 34.93 133.442 35.2771C134.11 35.6242 134.853 35.8012 135.605 35.7925Z" fill="#0697D4"/>
<path d="M155.19 30.1048C155.289 31.8951 155.81 33.3154 156.753 34.3656C157.219 34.8832 157.794 35.2916 158.436 35.5619C159.078 35.8322 159.771 35.9576 160.467 35.9293C161.415 35.9478 162.35 35.7087 163.172 35.2374C163.541 35.0296 163.865 34.7493 164.124 34.4135C164.382 34.0777 164.571 33.6931 164.677 33.2828H171.092C170.483 35.5276 169.135 37.5013 167.265 38.8845C165.359 40.2166 163.076 40.9017 160.752 40.839C152.903 40.839 148.977 36.5625 148.974 28.0095C148.958 26.333 149.222 24.6655 149.756 23.0763C150.229 21.6755 150.988 20.3882 151.984 19.2962C152.974 18.2302 154.193 17.4028 155.549 16.8765C157.094 16.2952 158.735 16.0114 160.385 16.04C164.033 16.04 166.787 17.2049 168.645 19.5347C170.503 21.8645 171.427 25.3878 171.416 30.1048H155.19ZM165.005 26.1957C164.99 25.4165 164.836 24.6462 164.552 23.9206C164.307 23.3074 163.938 22.7512 163.469 22.2867C163.032 21.8619 162.51 21.5354 161.937 21.3289C161.369 21.1223 160.77 21.0165 160.166 21.0162C159.563 21.0116 158.965 21.1303 158.409 21.3649C157.853 21.5995 157.351 21.945 156.933 22.3805C156.026 23.2926 155.505 24.5617 155.37 26.1879L165.005 26.1957Z" fill="#0697D4"/>
<path d="M173.562 40.2449V8.07336H179.785V40.2449H173.562Z" fill="#0697D4"/>
<path d="M188.124 30.1048C188.223 31.8951 188.744 33.3154 189.687 34.3657C190.152 34.8831 190.726 35.2916 191.367 35.5618C192.009 35.8321 192.702 35.9576 193.397 35.9293C194.345 35.9482 195.28 35.7091 196.102 35.2374C196.473 35.0311 196.798 34.7514 197.057 34.4153C197.317 34.0793 197.505 33.694 197.611 33.2828H204.026C203.415 35.528 202.066 37.5017 200.195 38.8845C198.291 40.2171 196.009 40.9023 193.686 40.839C185.834 40.839 181.908 36.5625 181.908 28.0095C181.89 26.3329 182.154 24.6651 182.69 23.0763C183.16 21.6741 183.919 20.3863 184.918 19.2963C185.907 18.2285 187.126 17.4009 188.483 16.8766C190.028 16.2949 191.668 16.011 193.319 16.04C196.967 16.04 199.719 17.2049 201.575 19.5347C203.43 21.8645 204.357 25.3879 204.354 30.1048H188.124ZM197.939 26.1957C197.922 25.4163 197.768 24.646 197.482 23.9207C197.241 23.3072 196.875 22.7507 196.407 22.2867C195.97 21.8625 195.447 21.5361 194.874 21.329C194.307 21.1223 193.708 21.0165 193.104 21.0162C192.5 21.0114 191.902 21.13 191.346 21.3646C190.79 21.5992 190.288 21.9449 189.871 22.3805C188.959 23.2926 188.438 24.5618 188.307 26.1879L197.939 26.1957Z" fill="#0697D4"/>
<path d="M222.925 37.0824C222.447 38.1712 221.588 39.0482 220.51 39.5491C219.25 40.1613 217.864 40.4654 216.464 40.4364C214.769 40.4914 213.087 40.1374 211.558 39.4044C210.292 38.7669 209.194 37.8402 208.353 36.6994C207.517 35.5402 206.914 34.2299 206.578 32.8411C206.21 31.3697 206.025 29.8585 206.027 28.3418C206.008 26.6393 206.285 24.9464 206.844 23.3382C207.329 21.9199 208.076 20.6047 209.044 19.4604C209.944 18.4129 211.053 17.5659 212.301 16.9743C213.557 16.3806 214.93 16.0773 216.319 16.0869C219.254 16.0869 221.456 17.2675 222.925 19.6285V16.6889H229.153V40.4833C229.185 42.1014 228.875 43.7081 228.242 45.1976C227.673 46.5013 226.823 47.6628 225.752 48.5985C224.656 49.5303 223.388 50.2369 222.019 50.6781C219.046 51.6278 215.853 51.6374 212.875 50.7055C211.556 50.2923 210.328 49.6287 209.259 48.751C208.255 47.9071 207.447 46.8547 206.891 45.6667C206.299 44.375 206.004 42.9672 206.027 41.5466H211.82C211.82 42.9851 212.29 44.094 213.231 44.8732C214.172 45.6524 215.425 46.0433 216.992 46.0459C218.511 46.0903 220 45.6083 221.206 44.6816C221.766 44.2436 222.215 43.6783 222.514 43.0325C222.813 42.3868 222.954 41.6791 222.925 40.968V37.0824ZM217.805 35.5501C218.53 35.5644 219.249 35.4147 219.908 35.1121C220.568 34.8095 221.15 34.3619 221.612 33.8028C222.618 32.6379 223.12 31.0508 223.117 29.0415C223.117 23.9988 221.346 21.4775 217.805 21.4775C214.263 21.4775 212.492 23.8712 212.492 28.6584C212.492 30.7641 212.994 32.4398 213.997 33.6855C214.441 34.2734 215.017 34.7485 215.678 35.0725C216.34 35.3964 217.068 35.56 217.805 35.5501Z" fill="#0697D4"/>
<path d="M243.464 40.8664C241.714 40.8957 239.975 40.5864 238.343 39.9556C236.901 39.3998 235.6 38.5324 234.532 37.4154C233.465 36.2984 232.657 34.9593 232.167 33.4939C231.61 31.8771 231.335 30.1767 231.354 28.4669C231.332 26.7369 231.615 25.0167 232.19 23.3851C232.711 21.9255 233.536 20.5931 234.61 19.476C235.685 18.3785 236.982 17.523 238.413 16.9664C240.025 16.3528 241.739 16.0516 243.464 16.0791C245.166 16.0524 246.856 16.3537 248.444 16.9664C249.858 17.5201 251.138 18.3675 252.201 19.4526C253.268 20.5707 254.085 21.9032 254.597 23.3616C255.175 25.0075 255.458 26.7423 255.433 28.4864C255.457 30.2165 255.174 31.937 254.597 33.5682C254.079 35.0239 253.263 36.3554 252.201 37.4772C251.139 38.5809 249.849 39.4388 248.421 39.9908C246.839 40.5957 245.157 40.8929 243.464 40.8664ZM243.464 35.6478C247.264 35.6478 249.163 33.2542 249.163 28.4669C249.163 23.6796 247.264 21.3016 243.464 21.3329C239.667 21.3329 237.768 23.7109 237.768 28.4669C237.768 33.2229 239.667 35.6165 243.464 35.6478Z" fill="#0697D4"/>
<path d="M69.1904 56.9092C68.559 56.5514 68.0383 56.0266 67.6855 55.3924C67.3165 54.7267 67.1279 53.9761 67.1382 53.2151C67.1267 52.4576 67.3155 51.7105 67.6855 51.0495C68.0371 50.4154 68.5582 49.8916 69.1904 49.5367C69.8557 49.175 70.6008 48.9856 71.358 48.9856C72.1152 48.9856 72.8603 49.175 73.5256 49.5367C74.1607 49.8905 74.6846 50.4143 75.0384 51.0495C75.4046 51.7119 75.5919 52.4583 75.5817 53.2151C75.5914 53.9756 75.4043 54.7257 75.0384 55.3924C74.6837 56.0279 74.1601 56.5528 73.5256 56.9092C72.8603 57.2708 72.1152 57.4602 71.358 57.4602C70.6008 57.4602 69.8557 57.2708 69.1904 56.9092ZM73.0995 56.2212C73.6112 55.9238 74.0338 55.4945 74.323 54.9781C74.6221 54.4393 74.7745 53.8313 74.7648 53.2151C74.7737 52.6039 74.6214 52.0012 74.323 51.4677C74.0361 50.9496 73.613 50.5197 73.0995 50.2247C72.5667 49.9247 71.9656 49.767 71.3541 49.767C70.7426 49.767 70.1415 49.9247 69.6087 50.2247C69.0964 50.52 68.6746 50.9499 68.3891 51.4677C68.0896 52.0009 67.9358 52.6036 67.9435 53.2151C67.9349 53.8317 68.0886 54.4396 68.3891 54.9781C68.6768 55.4943 69.0981 55.9237 69.6087 56.2212C70.1424 56.5186 70.7432 56.6748 71.3541 56.6748C71.9651 56.6748 72.5659 56.5186 73.0995 56.2212Z" fill="#1467A4"/>
<path d="M83.3803 51.6788C83.4187 51.7164 83.4489 51.7615 83.4691 51.8112C83.4893 51.861 83.499 51.9144 83.4976 51.9681V56.9404C83.501 56.9957 83.4927 57.0511 83.473 57.1029C83.4534 57.1548 83.423 57.2018 83.3839 57.241C83.3447 57.2802 83.2976 57.3106 83.2458 57.3302C83.1939 57.3498 83.1385 57.3582 83.0832 57.3548C83.0295 57.3561 82.9762 57.3464 82.9264 57.3263C82.8766 57.3061 82.8315 57.2759 82.794 57.2375C82.757 57.1977 82.7282 57.1509 82.7094 57.0999C82.6907 57.0489 82.6822 56.9947 82.6845 56.9404V56.5808C82.4487 56.8434 82.1595 57.0527 81.8363 57.1945C81.4966 57.3447 81.1287 57.4206 80.7574 57.4173C80.2886 57.4248 79.8252 57.316 79.4087 57.1007C79.0126 56.891 78.6875 56.5686 78.4745 56.1742C78.2378 55.7269 78.1207 55.226 78.1344 54.7201V51.9837C78.1344 51.8801 78.1756 51.7806 78.2489 51.7073C78.3222 51.634 78.4216 51.5928 78.5253 51.5928C78.5782 51.5902 78.6312 51.5983 78.6809 51.6168C78.7306 51.6352 78.776 51.6636 78.8144 51.7002C78.8528 51.7367 78.8834 51.7807 78.9042 51.8295C78.9251 51.8782 78.9358 51.9307 78.9357 51.9837V54.7201C78.9176 54.982 78.9549 55.2447 79.0452 55.4912C79.1354 55.7378 79.2766 55.9625 79.4595 56.1508C79.8346 56.4887 80.3274 56.6656 80.8316 56.6433C81.1541 56.6482 81.4735 56.58 81.7659 56.444C82.0322 56.322 82.2605 56.1302 82.4265 55.8889C82.587 55.6598 82.673 55.3868 82.6728 55.1071V51.9798C82.6704 51.9267 82.6789 51.8736 82.6977 51.8239C82.7165 51.7742 82.7453 51.7288 82.7822 51.6906C82.8202 51.6529 82.8654 51.6234 82.9151 51.6039C82.9649 51.5844 83.0181 51.5753 83.0715 51.5772C83.1272 51.5724 83.1832 51.579 83.2363 51.5965C83.2894 51.6139 83.3384 51.6419 83.3803 51.6788Z" fill="#1467A4"/>
<path d="M89.283 56.6551C89.3548 56.7369 89.3926 56.8433 89.3885 56.9521C89.3899 57.006 89.3793 57.0594 89.3577 57.1087C89.3361 57.158 89.3039 57.202 89.2634 57.2375C89.1769 57.3159 89.0635 57.3579 88.9468 57.3548H88.7357C88.3819 57.3589 88.0339 57.2641 87.7311 57.0811C87.4386 56.9063 87.1994 56.6549 87.0392 56.3541C86.8687 56.033 86.7827 55.6738 86.789 55.3103V52.488H86.101C86.0515 52.4901 86.0021 52.4822 85.9558 52.4647C85.9094 52.4473 85.8671 52.4206 85.8313 52.3864C85.7982 52.3538 85.772 52.3148 85.7546 52.2718C85.7371 52.2288 85.7286 52.1826 85.7296 52.1362C85.7282 52.0885 85.7365 52.0411 85.754 51.9968C85.7714 51.9524 85.7978 51.9121 85.8313 51.8782C85.8671 51.8439 85.9094 51.8173 85.9558 51.7998C86.0021 51.7824 86.0515 51.7744 86.101 51.7766H86.7812V50.1387C86.7789 50.0844 86.7873 50.0301 86.8061 49.9791C86.8249 49.9281 86.8536 49.8814 86.8906 49.8416C86.9287 49.8027 86.9744 49.7722 87.0249 49.752C87.0753 49.7318 87.1295 49.7224 87.1838 49.7243C87.2388 49.7218 87.2937 49.731 87.3449 49.7512C87.3961 49.7714 87.4424 49.8022 87.4809 49.8416C87.5184 49.8812 87.5478 49.9278 87.5672 49.9788C87.5867 50.0298 87.5959 50.0841 87.5943 50.1387V51.7766H88.7904C88.8399 51.7744 88.8893 51.7824 88.9357 51.7998C88.982 51.8173 89.0244 51.8439 89.0602 51.8782C89.0937 51.9121 89.12 51.9524 89.1375 51.9968C89.1549 52.0411 89.1632 52.0885 89.1618 52.1362C89.1628 52.1826 89.1544 52.2288 89.1369 52.2718C89.1194 52.3148 89.0933 52.3538 89.0602 52.3864C89.0244 52.4206 88.982 52.4473 88.9357 52.4647C88.8893 52.4822 88.8399 52.4901 88.7904 52.488H87.5943V55.3103C87.5805 55.6355 87.6957 55.953 87.9148 56.1938C88.0171 56.3068 88.1429 56.3962 88.2833 56.4556C88.4238 56.515 88.5755 56.5431 88.7279 56.5378H89.0133C89.0641 56.5364 89.1145 56.5462 89.1611 56.5665C89.2077 56.5868 89.2493 56.617 89.283 56.6551Z" fill="#1467A4"/>
<path d="M92.5315 57.1828C92.1623 57.0558 91.8287 56.8427 91.5582 56.5612C91.4951 56.4941 91.4577 56.4069 91.4526 56.315C91.4534 56.2526 91.469 56.1913 91.4982 56.1362C91.5275 56.0812 91.5695 56.0339 91.6207 55.9983C91.697 55.9394 91.7902 55.9065 91.8865 55.9045C91.9453 55.9048 92.0032 55.9183 92.0559 55.944C92.1087 55.9697 92.155 56.007 92.1914 56.0531C92.3748 56.2573 92.6057 56.4131 92.8638 56.5065C93.1603 56.6157 93.4743 56.67 93.7902 56.6668C94.1772 56.6925 94.5632 56.6042 94.9004 56.4127C95.0163 56.3428 95.1127 56.245 95.181 56.1283C95.2493 56.0115 95.2872 55.8794 95.2913 55.7442C95.2892 55.6156 95.2539 55.4898 95.1889 55.3788C95.1238 55.2679 95.0312 55.1756 94.92 55.111C94.5606 54.9003 94.1611 54.7672 93.7473 54.7201C93.1838 54.6646 92.6447 54.4624 92.1836 54.1337C92.0257 54.017 91.8972 53.8651 91.8083 53.69C91.7194 53.5149 91.6726 53.3215 91.6715 53.1252C91.6617 52.8914 91.7114 52.659 91.816 52.4498C91.9206 52.2405 92.0767 52.0613 92.2696 51.929C92.7118 51.6342 93.2357 51.4865 93.7668 51.5068C94.1846 51.4968 94.5995 51.5782 94.9825 51.7453C95.3128 51.891 95.6007 52.1184 95.819 52.4059C95.8678 52.4778 95.8962 52.5615 95.9011 52.6483C95.9018 52.7066 95.8864 52.764 95.8568 52.8143C95.8272 52.8646 95.7844 52.9059 95.733 52.9336C95.6738 52.9719 95.6042 52.991 95.5337 52.9883C95.4607 52.9926 95.3877 52.9804 95.32 52.9527C95.2524 52.9249 95.1918 52.8823 95.1428 52.8281C94.9651 52.6303 94.7455 52.4747 94.5 52.3726C94.2545 52.2704 93.9893 52.2244 93.7238 52.2378C93.3973 52.2221 93.0735 52.3037 92.7934 52.4724C92.6889 52.5338 92.6019 52.6212 92.5408 52.726C92.4797 52.8308 92.4466 52.9495 92.4446 53.0708C92.4427 53.1921 92.4719 53.3119 92.5296 53.4186C92.5872 53.5253 92.6714 53.6154 92.7739 53.6803C93.1356 53.8808 93.5349 54.0046 93.9466 54.0438C94.532 54.1023 95.0909 54.3169 95.565 54.6653C95.7201 54.7944 95.8445 54.9565 95.929 55.1398C96.0135 55.3231 96.0561 55.5229 96.0536 55.7247C96.0572 56.0389 95.9538 56.3449 95.7604 56.5925C95.5504 56.8611 95.2704 57.0667 94.9512 57.1867C94.5778 57.3328 94.1794 57.4045 93.7785 57.3978C93.3534 57.4002 92.9313 57.3274 92.5315 57.1828Z" fill="#1467A4"/>
<path d="M99.6575 57.0264C99.2147 56.7792 98.8493 56.4138 98.6021 55.971C98.3533 55.5069 98.2231 54.9886 98.2231 54.4621C98.2231 53.9356 98.3533 53.4172 98.6021 52.9532C98.8487 52.5089 99.2142 52.1421 99.6575 51.8938C100.12 51.6451 100.637 51.5149 101.163 51.5149C101.688 51.5149 102.205 51.6451 102.667 51.8938C103.108 52.1449 103.471 52.5111 103.719 52.9532C103.972 53.416 104.104 53.9348 104.104 54.4621C104.104 54.9893 103.972 55.5081 103.719 55.971C103.473 56.4133 103.109 56.7786 102.667 57.0264C102.204 57.2752 101.686 57.4053 101.161 57.4053C100.635 57.4053 100.117 57.2752 99.6536 57.0264H99.6575ZM102.265 56.3814C102.585 56.1963 102.848 55.9256 103.023 55.5996C103.205 55.2502 103.301 54.862 103.301 54.4679C103.301 54.0739 103.205 53.6857 103.023 53.3363C102.848 53.0103 102.585 52.7396 102.265 52.5545C101.929 52.3672 101.551 52.2689 101.166 52.2689C100.782 52.2689 100.404 52.3672 100.068 52.5545C99.7398 52.7373 99.469 53.0081 99.2862 53.3363C99.1013 53.6848 99.0047 54.0734 99.0047 54.4679C99.0047 54.8625 99.1013 55.251 99.2862 55.5996C99.469 55.9278 99.7398 56.1986 100.068 56.3814C100.404 56.5687 100.782 56.667 101.166 56.667C101.551 56.667 101.929 56.5687 102.265 56.3814Z" fill="#1467A4"/>
<path d="M111.889 51.6788C111.927 51.7164 111.958 51.7615 111.978 51.8113C111.998 51.861 112.008 51.9144 112.006 51.9681V56.9404C112.01 56.9957 112.001 57.0511 111.982 57.103C111.962 57.1548 111.932 57.2019 111.893 57.241C111.853 57.2802 111.806 57.3106 111.755 57.3302C111.703 57.3498 111.647 57.3582 111.592 57.3548C111.538 57.3562 111.485 57.3465 111.435 57.3263C111.385 57.3061 111.34 57.2759 111.303 57.2375C111.266 57.1977 111.237 57.1509 111.218 57.0999C111.199 57.0489 111.191 56.9947 111.193 56.9404V56.5808C110.957 56.8434 110.668 57.0527 110.345 57.1945C110.005 57.3447 109.638 57.4206 109.266 57.4173C108.797 57.4248 108.334 57.316 107.918 57.1007C107.521 56.891 107.196 56.5686 106.983 56.1742C106.747 55.7269 106.629 55.226 106.643 54.7201V51.9837C106.643 51.8801 106.684 51.7806 106.758 51.7073C106.831 51.634 106.93 51.5928 107.034 51.5928C107.089 51.5904 107.144 51.5995 107.195 51.6197C107.246 51.64 107.293 51.6708 107.331 51.7101C107.368 51.7476 107.398 51.7921 107.417 51.8412C107.437 51.8902 107.446 51.9427 107.445 51.9955V54.7318C107.426 54.9937 107.464 55.2565 107.554 55.503C107.644 55.7495 107.785 55.9742 107.968 56.1625C108.343 56.5004 108.836 56.6773 109.34 56.6551C109.663 56.6599 109.982 56.5918 110.275 56.4557C110.541 56.3337 110.769 56.1419 110.935 55.9006C111.096 55.6715 111.182 55.3985 111.182 55.1188V51.9916C111.179 51.9384 111.188 51.8854 111.206 51.8356C111.225 51.7859 111.254 51.7405 111.291 51.7023C111.329 51.6646 111.374 51.6351 111.424 51.6156C111.474 51.5961 111.527 51.5871 111.58 51.5889C111.635 51.5826 111.691 51.5873 111.744 51.6027C111.797 51.6181 111.846 51.644 111.889 51.6788Z" fill="#1467A4"/>
<path d="M118.285 51.6046C118.356 51.6261 118.419 51.6692 118.466 51.728C118.512 51.7868 118.539 51.8583 118.543 51.9329C118.546 51.9641 118.546 51.9955 118.543 52.0267C118.523 52.1077 118.476 52.1795 118.41 52.23C118.331 52.2662 118.246 52.2835 118.16 52.2808L117.831 52.2613C117.747 52.2559 117.662 52.2559 117.577 52.2613C117.109 52.2424 116.65 52.3923 116.283 52.6835C116.12 52.8161 115.99 52.9846 115.902 53.1757C115.815 53.3669 115.773 53.5757 115.779 53.7858V56.9482C115.782 57.0017 115.775 57.0554 115.757 57.1058C115.739 57.1562 115.71 57.2024 115.673 57.2414C115.591 57.3119 115.487 57.3506 115.378 57.3506C115.27 57.3506 115.165 57.3119 115.083 57.2414C115.046 57.2024 115.018 57.1562 115 57.1058C114.982 57.0554 114.974 57.0017 114.978 56.9482V51.9681C114.974 51.914 114.981 51.8596 114.999 51.8084C115.017 51.7573 115.046 51.7105 115.083 51.671C115.166 51.6027 115.271 51.5654 115.378 51.5654C115.486 51.5654 115.59 51.6027 115.673 51.671C115.711 51.7105 115.739 51.7573 115.757 51.8084C115.776 51.8596 115.783 51.914 115.779 51.9681V52.4333C115.978 52.1424 116.247 51.9059 116.561 51.7453C116.878 51.584 117.229 51.5009 117.585 51.5029C117.823 51.4883 118.061 51.5229 118.285 51.6046Z" fill="#1467A4"/>
<path d="M121.42 57.0186C120.989 56.7646 120.634 56.4002 120.392 55.9631C120.134 55.5063 119.999 54.9905 120.001 54.466C119.99 53.9368 120.114 53.4136 120.36 52.9453C120.589 52.5104 120.932 52.1466 121.353 51.8938C121.783 51.6338 122.277 51.4985 122.78 51.5029C123.193 51.4916 123.603 51.5777 123.976 51.7543C124.35 51.9309 124.677 52.1929 124.93 52.5193C124.984 52.5795 125.013 52.6575 125.012 52.7382C125.01 52.7988 124.992 52.8579 124.96 52.9099C124.929 52.9618 124.885 53.0049 124.832 53.0353C124.774 53.0763 124.704 53.0981 124.633 53.0978C124.573 53.0946 124.515 53.079 124.462 53.0521C124.409 53.0251 124.362 52.9875 124.324 52.9414C124.131 52.7209 123.894 52.5425 123.628 52.4176C123.362 52.2976 123.072 52.2376 122.78 52.2417C122.415 52.237 122.056 52.3345 121.744 52.5232C121.439 52.7105 121.195 52.982 121.04 53.305C120.871 53.6627 120.785 54.0545 120.79 54.4503C120.785 54.8417 120.877 55.2283 121.056 55.5761C121.225 55.9012 121.483 56.1722 121.799 56.358C122.128 56.5502 122.504 56.6489 122.886 56.6433C123.382 56.6675 123.869 56.5043 124.25 56.186C124.328 56.1138 124.429 56.0722 124.535 56.0687C124.639 56.0687 124.738 56.1099 124.812 56.1832C124.885 56.2565 124.926 56.3559 124.926 56.4596C124.927 56.504 124.918 56.5481 124.9 56.5887C124.881 56.6293 124.854 56.6653 124.82 56.6941C124.296 57.1733 123.604 57.4274 122.893 57.4017C122.377 57.409 121.867 57.2767 121.42 57.0186Z" fill="#1467A4"/>
<path d="M127.846 50.299C127.793 50.244 127.751 50.179 127.724 50.1079C127.696 50.0368 127.683 49.9608 127.685 49.8846C127.682 49.8076 127.696 49.7308 127.725 49.6593C127.754 49.5879 127.798 49.5234 127.854 49.4702C127.964 49.3662 128.112 49.31 128.264 49.3139C128.41 49.3139 128.55 49.3699 128.655 49.4702C128.711 49.5234 128.755 49.5879 128.784 49.6593C128.813 49.7308 128.826 49.8076 128.823 49.8846C128.825 49.9615 128.81 50.0378 128.782 50.1091C128.753 50.1803 128.71 50.2449 128.655 50.299C128.551 50.4029 128.411 50.4631 128.264 50.467C128.186 50.4696 128.109 50.456 128.037 50.427C127.965 50.3981 127.9 50.3545 127.846 50.299ZM127.971 57.2375C127.931 57.1991 127.901 57.1527 127.88 57.1015C127.86 57.0503 127.851 56.9954 127.854 56.9404V51.9955C127.851 51.9405 127.86 51.8856 127.88 51.8344C127.901 51.7832 127.931 51.7369 127.971 51.6984C128.009 51.6595 128.055 51.629 128.105 51.6088C128.156 51.5886 128.21 51.5792 128.264 51.5811C128.318 51.5792 128.372 51.5886 128.423 51.6088C128.473 51.629 128.519 51.6595 128.557 51.6984C128.594 51.7382 128.623 51.785 128.642 51.836C128.66 51.887 128.669 51.9412 128.667 51.9955V56.9561C128.669 57.0104 128.66 57.0646 128.642 57.1156C128.623 57.1666 128.594 57.2134 128.557 57.2532C128.519 57.292 128.473 57.3225 128.423 57.3427C128.372 57.3629 128.318 57.3724 128.264 57.3704C128.208 57.3704 128.154 57.3585 128.103 57.3356C128.053 57.3126 128.007 57.2792 127.971 57.2375Z" fill="#1467A4"/>
<path d="M135.886 51.8196C136.284 52.0292 136.61 52.3515 136.825 52.746C137.058 53.1944 137.174 53.6948 137.161 54.2002V56.9365C137.162 56.9896 137.152 57.0422 137.132 57.0913C137.111 57.1403 137.081 57.1848 137.044 57.2219C137.006 57.2598 136.962 57.2897 136.913 57.3099C136.864 57.33 136.811 57.34 136.758 57.3392C136.704 57.3411 136.65 57.3316 136.599 57.3115C136.549 57.2913 136.503 57.2608 136.465 57.2219C136.427 57.1848 136.397 57.1403 136.377 57.0913C136.357 57.0422 136.347 56.9896 136.348 56.9365V54.2002C136.365 53.9378 136.328 53.6745 136.238 53.4274C136.148 53.1804 136.007 52.9549 135.824 52.7656C135.448 52.4299 134.955 52.2545 134.452 52.2769C134.129 52.2721 133.81 52.3402 133.518 52.4763C133.252 52.5993 133.024 52.7909 132.857 53.0314C132.696 53.2605 132.61 53.5335 132.611 53.8132V56.9404C132.611 57.0441 132.57 57.1435 132.496 57.2169C132.423 57.2902 132.323 57.3313 132.22 57.3313C132.165 57.3329 132.111 57.3238 132.06 57.3043C132.009 57.2849 131.962 57.2555 131.923 57.218C131.884 57.1804 131.854 57.1353 131.834 57.0856C131.814 57.0358 131.804 56.9824 131.805 56.9287V51.9955C131.802 51.9402 131.81 51.8848 131.83 51.833C131.85 51.7811 131.88 51.7341 131.919 51.6949C131.958 51.6557 132.005 51.6253 132.057 51.6057C132.109 51.5861 132.164 51.5777 132.22 51.5811C132.273 51.5798 132.327 51.5895 132.377 51.6096C132.426 51.6298 132.471 51.66 132.509 51.6984C132.546 51.7382 132.575 51.785 132.594 51.836C132.612 51.887 132.621 51.9412 132.619 51.9955V52.3551C132.854 52.0925 133.144 51.8832 133.467 51.7414C133.806 51.5913 134.174 51.5153 134.546 51.5186C135.011 51.5076 135.471 51.6109 135.886 51.8196Z" fill="#1467A4"/>
<path d="M144.166 51.8899C144.605 52.1347 144.967 52.4977 145.21 52.9375C145.473 53.4037 145.607 53.931 145.601 54.466V56.6238C145.604 57.1596 145.469 57.6873 145.21 58.1561C144.967 58.6064 144.606 58.982 144.166 59.2428C143.711 59.5076 143.192 59.6427 142.665 59.6337C142.165 59.6427 141.669 59.5385 141.215 59.3288C140.798 59.127 140.433 58.8329 140.148 58.4689C140.086 58.4032 140.053 58.3164 140.054 58.2265C140.054 58.1722 140.068 58.1189 140.094 58.0712C140.12 58.0235 140.157 57.9829 140.202 57.9529C140.27 57.9043 140.35 57.8783 140.433 57.8786C140.5 57.8793 140.565 57.8954 140.625 57.9255C140.683 57.9529 140.734 57.9946 140.773 58.0467C140.985 58.3172 141.261 58.5319 141.575 58.6721C141.922 58.8253 142.298 58.9014 142.677 58.8949C143.054 58.8982 143.425 58.7965 143.748 58.6012C144.071 58.4058 144.334 58.1245 144.506 57.7887C144.695 57.4172 144.789 57.005 144.78 56.5886V56.1117C144.576 56.5057 144.264 56.8338 143.881 57.0577C143.48 57.2911 143.023 57.4101 142.56 57.4017C142.041 57.4056 141.531 57.2707 141.082 57.0108C140.653 56.7635 140.302 56.4005 140.07 55.9631C139.82 55.4972 139.693 54.9751 139.702 54.4464C139.695 53.9114 139.83 53.3842 140.093 52.918C140.338 52.4768 140.702 52.1137 141.145 51.8704C141.61 51.6239 142.129 51.4951 142.655 51.4951C143.182 51.4951 143.701 51.6239 144.166 51.8704V51.8899ZM143.752 56.3853C144.073 56.2001 144.337 55.9295 144.514 55.6035C144.694 55.2513 144.788 54.8615 144.788 54.466C144.788 54.0705 144.694 53.6807 144.514 53.3285C144.336 53.0031 144.073 52.7327 143.752 52.5466C143.418 52.3554 143.038 52.2569 142.653 52.2613C142.263 52.2552 141.879 52.3538 141.539 52.5466C141.22 52.7328 140.957 53.0032 140.781 53.3285C140.599 53.6799 140.504 54.0701 140.504 54.466C140.504 54.8619 140.599 55.2521 140.781 55.6035C140.956 55.9293 141.219 56.2 141.539 56.3853C141.879 56.5769 142.264 56.674 142.653 56.6668C143.038 56.6726 143.417 56.5754 143.752 56.3853Z" fill="#1467A4"/>
<path d="M153.255 57.0303C152.766 56.771 152.375 56.3593 152.141 55.8576C152.112 55.8049 152.097 55.7457 152.098 55.6856C152.097 55.6388 152.107 55.5925 152.127 55.5499C152.147 55.5074 152.175 55.4696 152.211 55.4394C152.295 55.3683 152.402 55.3319 152.512 55.3377C152.597 55.3381 152.679 55.3625 152.75 55.4081C152.826 55.453 152.883 55.5219 152.915 55.6035C153.092 55.945 153.376 56.2194 153.724 56.3853C154.133 56.5873 154.585 56.6865 155.041 56.6746C155.541 56.6993 156.033 56.5516 156.437 56.2563C156.612 56.1173 156.751 55.9383 156.843 55.7342C156.935 55.5302 156.977 55.3071 156.964 55.0836C156.968 54.8727 156.926 54.6636 156.841 54.4706C156.756 54.2776 156.63 54.1053 156.472 53.9656C156.053 53.6229 155.538 53.4192 154.998 53.3832C154.29 53.3235 153.617 53.051 153.067 52.6014C152.844 52.4159 152.666 52.1833 152.544 51.9203C152.422 51.6573 152.361 51.3705 152.363 51.0808C152.356 50.6821 152.476 50.2915 152.707 49.9667C152.948 49.6351 153.277 49.3777 153.657 49.224C154.097 49.0456 154.567 48.9579 155.041 48.966C155.557 48.9623 156.065 49.0973 156.511 49.3569C156.918 49.588 157.26 49.9189 157.504 50.3185C157.554 50.3938 157.579 50.4824 157.578 50.5726C157.578 50.6379 157.561 50.7019 157.527 50.7578C157.493 50.8136 157.445 50.8591 157.387 50.8892C157.328 50.9181 157.264 50.9328 157.199 50.9322C157.122 50.9328 157.046 50.9125 156.98 50.8736C156.913 50.8334 156.856 50.7769 156.816 50.7094C156.629 50.4078 156.365 50.1615 156.051 49.996C155.737 49.8304 155.384 49.7515 155.029 49.7673C154.551 49.7421 154.076 49.8679 153.673 50.127C153.512 50.2439 153.382 50.399 153.295 50.5784C153.209 50.7578 153.168 50.956 153.177 51.155C153.177 51.9812 153.844 52.4815 155.178 52.6561C155.897 52.7161 156.58 52.9974 157.133 53.4614C157.348 53.6702 157.518 53.9224 157.629 54.2013C157.74 54.4803 157.791 54.7797 157.778 55.0797C157.79 55.5324 157.665 55.9783 157.418 56.358C157.176 56.7198 156.836 57.0047 156.437 57.1789C155.997 57.3709 155.521 57.4669 155.041 57.4603C154.419 57.4716 153.804 57.3236 153.255 57.0303Z" fill="#1467A4"/>
<path d="M164.306 51.8782C164.708 52.1197 165.034 52.4709 165.244 52.8906C165.47 53.3471 165.584 53.851 165.576 54.3604C165.579 54.4103 165.571 54.4602 165.552 54.5067C165.534 54.5532 165.506 54.5953 165.471 54.6302C165.394 54.6977 165.295 54.7327 165.193 54.7279H160.921C160.957 55.2665 161.199 55.7705 161.597 56.1352C162.003 56.4985 162.534 56.6917 163.078 56.6746C163.344 56.6751 163.608 56.6315 163.86 56.5456C164.087 56.4742 164.298 56.3601 164.482 56.2094C164.562 56.1424 164.663 56.1051 164.767 56.1039C164.851 56.107 164.932 56.1371 164.998 56.1899C165.039 56.2253 165.073 56.269 165.096 56.3181C165.12 56.3672 165.133 56.4208 165.134 56.4752C165.134 56.5213 165.123 56.5667 165.104 56.6085C165.084 56.6502 165.056 56.6874 165.021 56.7176C164.756 56.934 164.454 57.1009 164.13 57.2101C163.717 57.365 163.276 57.4291 162.836 57.3981C162.396 57.3671 161.968 57.2416 161.581 57.0303C161.143 56.7854 160.783 56.4224 160.541 55.9827C160.282 55.5196 160.147 54.9969 160.15 54.466C160.141 53.9354 160.262 53.4105 160.502 52.9376C160.726 52.5027 161.067 52.1396 161.487 51.8899C161.92 51.6297 162.417 51.4944 162.922 51.499C163.409 51.4948 163.889 51.626 164.306 51.8782ZM161.589 52.7421C161.226 53.089 160.996 53.5525 160.94 54.0516H164.814C164.779 53.5581 164.568 53.0935 164.22 52.7421C164.048 52.5759 163.845 52.4463 163.622 52.3609C163.399 52.2756 163.161 52.2364 162.922 52.2456C162.678 52.2367 162.435 52.276 162.206 52.3612C161.977 52.4464 161.768 52.5758 161.589 52.7421Z" fill="#1467A4"/>
<path d="M171.326 51.6046C171.398 51.6261 171.461 51.6692 171.507 51.728C171.553 51.7868 171.58 51.8583 171.584 51.9329C171.589 51.964 171.589 51.9957 171.584 52.0267C171.567 52.109 171.52 52.1817 171.451 52.23C171.374 52.2665 171.29 52.284 171.205 52.2808C171.138 52.2808 171.029 52.2808 170.877 52.2613C170.792 52.256 170.707 52.256 170.622 52.2613C170.153 52.2415 169.692 52.3914 169.325 52.6835C169.163 52.8169 169.033 52.9856 168.947 53.1766C168.86 53.3677 168.818 53.5761 168.824 53.7858V56.9482C168.824 57.055 168.782 57.1574 168.706 57.2329C168.631 57.3084 168.528 57.3509 168.422 57.3509C168.315 57.3509 168.212 57.3084 168.137 57.2329C168.061 57.1574 168.019 57.055 168.019 56.9482V51.9681C168.019 51.8613 168.061 51.7589 168.137 51.6834C168.212 51.6079 168.315 51.5655 168.422 51.5655C168.528 51.5655 168.631 51.6079 168.706 51.6834C168.782 51.7589 168.824 51.8613 168.824 51.9681V52.4333C169.023 52.142 169.292 51.9054 169.606 51.7453C169.925 51.584 170.277 51.5009 170.634 51.5029C170.869 51.4902 171.105 51.5247 171.326 51.6046Z" fill="#1467A4"/>
<path d="M178.644 51.9368C178.642 51.9877 178.631 52.0378 178.613 52.0854L176.299 57.0772C176.268 57.1568 176.215 57.2255 176.145 57.2749C176.075 57.3243 175.993 57.3521 175.908 57.3548C175.821 57.3585 175.736 57.3332 175.665 57.283C175.594 57.2327 175.542 57.1603 175.517 57.0772L173.171 52.0971C173.151 52.0504 173.14 51.9997 173.14 51.9486C173.143 51.8761 173.166 51.8058 173.207 51.7458C173.248 51.6857 173.305 51.6382 173.371 51.6085C173.424 51.5802 173.483 51.5654 173.543 51.5655C173.612 51.5662 173.679 51.5851 173.738 51.6202C173.798 51.6568 173.845 51.7116 173.871 51.7766L175.908 56.1782L177.917 51.7766C177.945 51.708 177.994 51.6503 178.058 51.6124C178.122 51.5761 178.195 51.5573 178.269 51.5577C178.327 51.5562 178.385 51.5696 178.437 51.5968C178.502 51.6259 178.556 51.674 178.593 51.7347C178.63 51.7954 178.648 51.8659 178.644 51.9368Z" fill="#1467A4"/>
<path d="M180.99 50.299C180.936 50.2442 180.894 50.1793 180.866 50.1082C180.838 50.0371 180.824 49.9611 180.825 49.8846C180.823 49.8073 180.837 49.7303 180.867 49.6588C180.896 49.5874 180.941 49.5231 180.997 49.4702C181.109 49.3694 181.254 49.3136 181.404 49.3136C181.554 49.3136 181.699 49.3694 181.811 49.4702C181.866 49.5234 181.91 49.5879 181.939 49.6593C181.968 49.7308 181.982 49.8076 181.979 49.8846C181.98 49.9614 181.966 50.0378 181.937 50.109C181.908 50.1803 181.865 50.2449 181.811 50.299C181.756 50.3532 181.692 50.3961 181.62 50.425C181.549 50.4538 181.473 50.4681 181.396 50.467C181.321 50.468 181.246 50.4536 181.176 50.4247C181.106 50.3958 181.043 50.353 180.99 50.299ZM181.111 57.2375C181.073 57.1979 181.044 57.1513 181.025 57.1003C181.005 57.0493 180.996 56.995 180.997 56.9404V51.9955C180.996 51.9409 181.005 51.8866 181.025 51.8356C181.044 51.7846 181.073 51.738 181.111 51.6984C181.149 51.659 181.196 51.6282 181.247 51.608C181.298 51.5878 181.353 51.5787 181.408 51.5811C181.462 51.5792 181.516 51.5886 181.567 51.6088C181.617 51.629 181.663 51.6595 181.701 51.6984C181.738 51.7382 181.767 51.785 181.786 51.836C181.804 51.887 181.813 51.9412 181.811 51.9955V56.9561C181.813 57.0104 181.804 57.0646 181.786 57.1156C181.767 57.1666 181.738 57.2133 181.701 57.2532C181.663 57.292 181.617 57.3225 181.567 57.3427C181.516 57.3629 181.462 57.3723 181.408 57.3704C181.35 57.3721 181.293 57.361 181.241 57.338C181.188 57.315 181.141 57.2807 181.103 57.2375H181.111Z" fill="#1467A4"/>
<path d="M186.032 57.0186C185.602 56.7646 185.247 56.4002 185.004 55.9632C184.745 55.507 184.61 54.9907 184.613 54.466C184.605 53.9371 184.729 53.4146 184.973 52.9454C185.205 52.5057 185.554 52.1391 185.982 51.8865C186.41 51.6339 186.9 51.5051 187.396 51.5147C187.809 51.5033 188.219 51.5895 188.593 51.766C188.966 51.9426 189.293 52.2047 189.546 52.531C189.6 52.5912 189.629 52.6693 189.628 52.7499C189.626 52.8106 189.608 52.8697 189.577 52.9216C189.545 52.9736 189.501 53.0167 189.449 53.047C189.39 53.088 189.321 53.1099 189.249 53.1096C189.19 53.1063 189.132 53.0907 189.078 53.0638C189.025 53.0369 188.978 52.9992 188.94 52.9532C188.747 52.7326 188.51 52.5543 188.245 52.4294C187.978 52.3094 187.689 52.2493 187.396 52.2535C187.032 52.2488 186.673 52.3463 186.361 52.5349C186.056 52.7223 185.811 52.9938 185.657 53.3167C185.487 53.6744 185.402 54.0662 185.407 54.4621C185.402 54.8534 185.493 55.24 185.673 55.5879C185.842 55.913 186.099 56.1839 186.415 56.3697C186.745 56.562 187.12 56.6606 187.502 56.6551C187.998 56.6793 188.485 56.516 188.866 56.1977C188.944 56.1256 189.045 56.084 189.152 56.0804C189.255 56.0804 189.355 56.1216 189.428 56.1949C189.501 56.2682 189.542 56.3677 189.542 56.4713C189.543 56.5158 189.534 56.5599 189.516 56.6004C189.498 56.641 189.471 56.677 189.437 56.7059C188.912 57.1851 188.22 57.4391 187.51 57.4134C186.991 57.4179 186.48 57.2815 186.032 57.0186Z" fill="#1467A4"/>
<path d="M196.145 51.8782C196.547 52.1197 196.873 52.4709 197.083 52.8906C197.312 53.3462 197.426 53.8507 197.415 54.3604C197.418 54.4103 197.41 54.4602 197.391 54.5067C197.373 54.5532 197.345 54.5953 197.31 54.6302C197.234 54.6967 197.136 54.7317 197.036 54.7279H192.763C192.796 55.2713 193.04 55.7803 193.443 56.1457C193.847 56.5112 194.377 56.7038 194.921 56.6824C195.187 56.6826 195.451 56.639 195.703 56.5534C195.929 56.482 196.138 56.3679 196.321 56.2172C196.401 56.1508 196.502 56.1136 196.606 56.1117C196.691 56.1139 196.774 56.1441 196.841 56.1977C196.882 56.2331 196.916 56.2768 196.939 56.3259C196.963 56.375 196.976 56.4286 196.977 56.483C196.977 56.5295 196.966 56.5753 196.945 56.6171C196.925 56.659 196.896 56.6959 196.86 56.7254C196.597 56.9427 196.296 57.1096 195.973 57.2179C195.641 57.3421 195.291 57.4083 194.937 57.4134C194.407 57.4184 193.885 57.2835 193.424 57.0225C192.984 56.7789 192.622 56.4156 192.38 55.9749C192.121 55.5118 191.986 54.9891 191.989 54.4582C191.979 53.927 192.101 53.4017 192.345 52.9297C192.567 52.4951 192.907 52.132 193.326 51.8821C193.76 51.6228 194.256 51.4876 194.761 51.4912C195.249 51.4887 195.729 51.6227 196.145 51.8782ZM193.428 52.7421C193.067 53.0904 192.839 53.5534 192.783 54.0516H196.653C196.619 53.5585 196.41 53.0938 196.063 52.7421C195.89 52.5762 195.686 52.4467 195.462 52.3614C195.239 52.2761 195 52.2367 194.761 52.2456C194.268 52.2285 193.789 52.407 193.428 52.7421Z" fill="#1467A4"/>
<path d="M200.609 57.1828C200.241 57.0549 199.909 56.8419 199.639 56.5612C199.575 56.4947 199.536 56.4074 199.53 56.315C199.531 56.2523 199.547 56.1908 199.577 56.1357C199.607 56.0805 199.65 56.0335 199.702 55.9983C199.776 55.9389 199.868 55.9059 199.964 55.9045C200.023 55.9042 200.082 55.9174 200.135 55.9432C200.189 55.9689 200.236 56.0065 200.273 56.0531C200.454 56.259 200.686 56.415 200.945 56.5065C201.241 56.6161 201.555 56.6704 201.871 56.6668C202.258 56.6918 202.644 56.6035 202.981 56.4127C203.098 56.3431 203.194 56.2454 203.263 56.1285C203.331 56.0117 203.369 55.8795 203.372 55.7443C203.368 55.6137 203.33 55.4866 203.261 55.3754C203.193 55.2643 203.096 55.1731 202.981 55.111C202.622 54.9003 202.223 54.7672 201.809 54.7201C201.245 54.666 200.705 54.4637 200.245 54.1337C200.086 54.0179 199.956 53.8662 199.867 53.691C199.777 53.5158 199.73 53.322 199.729 53.1252C199.719 52.8915 199.769 52.659 199.874 52.4498C199.978 52.2406 200.134 52.0614 200.327 51.929C200.77 51.635 201.293 51.4873 201.824 51.5068C202.242 51.4965 202.657 51.5779 203.04 51.7453C203.371 51.89 203.659 52.1175 203.877 52.4059C203.928 52.4768 203.958 52.5609 203.963 52.6483C203.962 52.707 203.946 52.7645 203.916 52.8147C203.886 52.865 203.842 52.9061 203.791 52.9336C203.732 52.9729 203.662 52.9921 203.591 52.9884C203.518 52.9923 203.445 52.98 203.378 52.9523C203.31 52.9246 203.25 52.8821 203.2 52.8281C203.023 52.6304 202.805 52.4748 202.56 52.3727C202.315 52.2705 202.05 52.2245 201.785 52.2378C201.459 52.2209 201.135 52.3026 200.855 52.4724C200.75 52.5335 200.663 52.6206 200.601 52.7252C200.54 52.8298 200.507 52.9484 200.504 53.0697C200.502 53.191 200.531 53.3109 200.588 53.4178C200.645 53.5247 200.729 53.6151 200.832 53.6803C201.193 53.8808 201.592 54.0046 202.004 54.0438C202.59 54.1023 203.149 54.3169 203.623 54.6654C203.777 54.7947 203.901 54.9569 203.985 55.1402C204.069 55.3235 204.111 55.5232 204.107 55.7247C204.112 56.0384 204.01 56.3444 203.818 56.5925C203.606 56.8594 203.327 57.0646 203.009 57.1867C202.635 57.3321 202.237 57.4038 201.836 57.3978C201.418 57.3975 201.002 57.3248 200.609 57.1828Z" fill="#1467A4"/>
<path d="M44.8409 8.04989C44.5938 8.04925 44.3508 7.98748 44.1334 7.87008C33.9229 2.42086 20.1318 2.3974 10.5937 7.85053C10.2475 8.03986 9.84069 8.0856 9.46104 7.97793C9.08138 7.87025 8.75921 7.61775 8.56391 7.27484C8.36862 6.93192 8.31583 6.52601 8.41691 6.14455C8.518 5.76308 8.76487 5.43658 9.10435 5.23538C19.4946 -0.68684 34.4819 -0.698567 45.5485 5.21583C45.8452 5.37345 46.0806 5.62582 46.2172 5.93274C46.3539 6.23966 46.3839 6.58348 46.3026 6.90945C46.2212 7.23541 46.0331 7.52478 45.7682 7.73145C45.5033 7.93812 45.1769 8.05022 44.8409 8.04989Z" fill="#0B98D5"/>
<path d="M1.50525 24.2725C1.21888 24.2716 0.938503 24.1904 0.696077 24.0379C0.359691 23.8228 0.122265 23.4832 0.0358065 23.0934C-0.0506517 22.7036 0.0209074 22.2954 0.234808 21.9583C5.61367 13.5265 16.0039 8.23362 27.3636 8.14371H27.6529C38.7273 8.14371 48.6562 13.1864 54.254 21.6612C54.4743 21.9945 54.5532 22.4017 54.4733 22.7932C54.3934 23.1846 54.1612 23.5283 53.8279 23.7486C53.4946 23.969 53.0874 24.0478 52.696 23.9679C52.3045 23.888 51.9608 23.6559 51.7405 23.3226C46.5844 15.5045 37.6679 11.0247 27.3871 11.1576C17.0359 11.2358 7.61119 15.997 2.77569 23.5766C2.63929 23.7899 2.45144 23.9654 2.22943 24.087C2.00741 24.2086 1.75838 24.2724 1.50525 24.2725Z" fill="#0B98D5"/>
<path d="M36.2685 61.2013C36.1368 61.2022 36.0054 61.1864 35.8776 61.1544C25.8587 58.5939 18.6778 50.2833 18.0328 40.4677C17.6419 34.7096 20.7457 32.1961 22.6259 31.2071C25.9408 29.4715 30.3619 29.8038 33.1374 32.0085C35.8463 34.1585 36.2021 36.5273 36.5812 39.0448C36.6672 39.5999 36.7571 40.1862 36.8744 40.8156C37.0353 41.4353 37.3176 42.0169 37.7047 42.5269C38.0919 43.0368 38.5763 43.4649 39.1299 43.7865C40.2714 44.5096 42.2298 45.2172 45.0795 44.4823C49.3013 43.3955 49.3091 38.689 49.1215 36.7189C48.4413 29.7373 41.6943 19.0695 29.412 18.3463C21.0584 17.8616 13.7758 20.9693 9.47586 26.8876C4.93745 33.103 4.20646 41.5036 7.45879 49.951C7.53761 50.1368 7.57826 50.3366 7.57832 50.5384C7.57838 50.7402 7.53784 50.94 7.45912 51.1258C7.3804 51.3117 7.26511 51.4798 7.1201 51.6201C6.97509 51.7605 6.80333 51.8703 6.61504 51.9429C6.42674 52.0156 6.22576 52.0496 6.02404 52.043C5.82233 52.0364 5.624 51.9893 5.44087 51.9045C5.25773 51.8196 5.09353 51.6989 4.95802 51.5493C4.82251 51.3997 4.71847 51.2244 4.65209 51.0338C1.01667 41.5974 1.88839 32.157 7.03661 25.0973C11.9737 18.3346 20.2023 14.7539 29.6036 15.3246C43.8091 16.1612 51.3262 28.1581 52.1275 36.4101C52.6748 42.0352 50.2668 46.2413 45.8457 47.3828C42.8084 48.1646 39.8531 47.7737 37.5272 46.3156C35.6352 45.1155 34.2905 43.2626 33.9309 41.3589C33.8019 40.6944 33.7081 40.0689 33.6182 39.4787C33.2585 37.0902 33.0592 35.7729 31.2727 34.3617C29.4863 32.9506 26.2731 32.6965 24.041 33.8731C21.891 35.0067 20.8473 37.2192 21.0506 40.2683C21.6174 48.7783 27.8836 56.0022 36.6399 58.25C36.9967 58.3411 37.3077 58.5598 37.514 58.8648C37.7204 59.1698 37.8077 59.5399 37.7596 59.905C37.7114 60.2701 37.531 60.6048 37.2527 60.8459C36.9743 61.0869 36.6172 61.2175 36.249 61.213L36.2685 61.2013Z" fill="#1667A5"/>
<path d="M42.2612 54.9507C38.1245 54.9954 34.1139 53.5275 30.9836 50.8228C27.3834 47.6721 25.4249 43.2158 25.7455 38.8923C25.7577 38.6938 25.8097 38.4997 25.8982 38.3215C25.9867 38.1433 26.1101 37.9847 26.2609 37.855C26.4118 37.7252 26.5871 37.6271 26.7765 37.5662C26.9659 37.5054 27.1656 37.4831 27.3638 37.5007C27.7623 37.5307 28.1326 37.7175 28.3934 38.0202C28.6543 38.3229 28.7845 38.7166 28.7554 39.1152C28.5013 42.4926 30.0806 46.0225 32.9733 48.5555C36.3585 51.5147 40.8618 52.5897 45.6582 51.585C45.8547 51.5356 46.0592 51.5264 46.2594 51.5579C46.4596 51.5894 46.6513 51.6611 46.8231 51.7685C46.995 51.8759 47.1433 52.017 47.2593 52.1831C47.3753 52.3493 47.4565 52.5372 47.4981 52.7355C47.5398 52.9338 47.5409 53.1385 47.5015 53.3373C47.4621 53.5361 47.3829 53.7249 47.2688 53.8923C47.1546 54.0597 47.0078 54.2024 46.8372 54.3117C46.6666 54.4211 46.4756 54.4948 46.2758 54.5286C44.9557 54.807 43.6104 54.9485 42.2612 54.9507Z" fill="#0B98D5"/>
<path d="M20.5577 60.7478C20.3462 60.7473 20.1371 60.7025 19.9439 60.6163C19.7507 60.5301 19.5776 60.4045 19.4359 60.2475C9.66322 49.3686 9.40522 40.6318 10.8946 35.2295C12.4113 29.7139 16.6409 25.1207 21.6718 23.5454C27.0077 21.8762 33.0433 22.701 37.4253 25.6954C40.4118 27.7398 44.0707 31.7427 44.5984 39.205C44.612 39.4024 44.5866 39.6005 44.5237 39.7881C44.4607 39.9757 44.3614 40.149 44.2314 40.2982C44.1015 40.4474 43.9434 40.5695 43.7663 40.6576C43.5891 40.7457 43.3964 40.7981 43.199 40.8117C43.0016 40.8253 42.8035 40.7999 42.6159 40.7369C42.4284 40.6739 42.255 40.5746 42.1058 40.4447C41.9567 40.3147 41.8345 40.1567 41.7464 39.9795C41.6583 39.8024 41.606 39.6096 41.5924 39.4122C41.2523 34.4555 39.2235 30.5699 35.7288 28.1815C32.0895 25.6914 27.0507 25.0152 22.5748 26.4185C19.4749 27.388 15.3157 30.4957 13.7951 36.0153C12.5051 40.7061 12.8296 48.3718 21.6796 58.2382C21.872 58.4553 21.9978 58.7232 22.0418 59.0099C22.0858 59.2966 22.0463 59.59 21.9279 59.8548C21.8095 60.1196 21.6173 60.3446 21.3743 60.503C21.1313 60.6614 20.8478 60.7464 20.5577 60.7478Z" fill="#0B98D5"/>
</svg>
